<svg xmlns="http://www.w3.org/2000/svg" width="94" height="94" viewBox="0 0 94 94">
  <g id="Group_3" data-name="Group 3" transform="translate(-913 -915)">
    <circle id="Ellipse_1" data-name="Ellipse 1" cx="47" cy="47" r="47" transform="translate(913 915)" fill="#fff" style="mix-blend-mode: soft-light;isolation: isolate"/>
    <path id="Icon_awesome-chevron-down" data-name="Icon awesome-chevron-down" d="M14.557,26.823.892,13.158a1.687,1.687,0,0,1,0-2.386L2.486,9.177a1.687,1.687,0,0,1,2.384,0L15.75,20,26.631,9.175a1.687,1.687,0,0,1,2.384,0l1.594,1.594a1.687,1.687,0,0,1,0,2.386L16.943,26.823A1.688,1.688,0,0,1,14.557,26.823Z" transform="translate(944.602 944.317)" fill="#bc9050"/>
  </g>
</svg>
